<svg id="Layer_1" data-name="Layer 1" xmlns="http://www.w3.org/2000/svg" width="1000" height="1000" viewBox="0 0 1000 1000"><title>candy-1</title><g id="candy"><path d="M104.5,278.7c3.9-.7,7.5-2.7,11.5-2.8a208.4,208.4,0,0,1,176.7,86.5,221.6,221.6,0,0,1,28.2,53,211.3,211.3,0,0,1,88.4-92A207.8,207.8,0,0,1,521,298.5c49,2.7,96.5,23.7,131.9,57.6,17.8,17.5,33.2,37.6,43.7,60.4A210.6,210.6,0,0,1,849,280.8a178.2,178.2,0,0,1,55.9-4.4c9.9,3.6,20,7.7,28.3,14.4,22.4,16.6,35.2,44.6,35.3,72.2a94,94,0,0,1-17.2,55.8,90.1,90.1,0,0,1,23.9,29.9c16.5,32.4,12.4,74.6-11.3,102.5,18.9,24.5,24.1,58.5,14.3,87.8-8.4,25.7-29,48.3-55.5,55.4-2.7,1.4-5.3,3.2-8.5,3.4-6.7.5-13.5,1.1-20.2,1.3-20.3-.8-40.7-2.6-60.1-8.9-28.2-8.4-54.4-23.2-76.7-42.3A211.5,211.5,0,0,1,706,581.4,210.3,210.3,0,0,1,551.2,717.1c-9.9,2.2-20.1,2.7-30.2,3.6s-21.5.4-32.2-.5c-38.1-2.9-74.8-17.9-105.5-40.6-14.3-11.2-28-23.5-38.9-38.1a205.8,205.8,0,0,1-33.2-60,210.1,210.1,0,0,1-63.4,76.4c-31,22.9-68.4,37.5-106.9,40l-13.9,1c-8.7.5-17.4-1.3-26.1-1-6.2.2-12.2-1.9-18-3.9-11.5-4.5-22.2-11.3-30.4-20.6C23.2,642.6,20,590.9,44.7,556.4c-14-15-22-35-23.9-55.2a41.1,41.1,0,0,1-.1-9.1c-.7-15.2,3.6-30.4,10.7-43.7s15.3-22.2,26-30.3A95.1,95.1,0,0,1,41.6,361a101.7,101.7,0,0,1,8.8-35.7,89.9,89.9,0,0,1,27.7-34.1c8-5.6,16.7-10.6,26.4-12.5m-4.7,35.1c-5.2,2.9-9.3,7.4-13.2,11.8C76.3,337.8,71.8,354.3,73,370c1.3,13.8,6.1,27.8,15.9,38a15.6,15.6,0,0,1,4.7,12.9c-.4,4.8-4,8.4-5.9,12.7s-6.6,6.1-10.4,8.6c-11.8,7.6-19.6,20-23.6,33.2-2.1,7-2.1,14.4-1.9,21.6,1,15.4,7.1,31.1,18.9,41.4,3.7,3.7,9.1,5.7,11.6,10.4a15.5,15.5,0,0,1-2.7,18.7c-2.3,2.4-5.6,3.5-8.7,4.4-2.8,5.6-6.5,10.7-8.2,16.8a64.3,64.3,0,0,0,.4,43.1c3,9.2,8.4,17.9,16.1,23.9a42.9,42.9,0,0,0,20.9,11c6.3,0,12.6.5,18.9,1s11.7-.3,17.6-.6c40.5-2.2,79.7-19.9,109-47.7a181.8,181.8,0,0,0,51.3-87.3c-32.5,17.4-69,27.5-105.8,28.1-7.8-.4-14.4-7.6-14.2-15.4A15.4,15.4,0,0,1,191,529.6a291,291,0,0,0,30.9-3.3,209.9,209.9,0,0,0,77.5-31.7c.3-3.3.6-6.6.9-9.8-5.1-5.9-11.1-11-17.1-15.9-26-21.7-58-35.6-91.1-42.1a15.4,15.4,0,0,1-11.4-10.3,15.6,15.6,0,0,1,5.6-17.2,16.1,16.1,0,0,1,13.3-2.5c34.6,7,67.9,21.2,96.1,42.5-3.8-12.7-8.1-25.4-14.6-37.1a181,181,0,0,0-45.5-55.5A177.9,177.9,0,0,0,121,306.7c-7.3,1.4-14.7,3.4-21.2,7.1m775.1-5.8c-32.8,3.1-64.4,16.3-90.3,36.6A179.7,179.7,0,0,0,725,428.9c22.7-13.1,47.2-23.3,73-28.1,7.4-1.3,15.2,3.9,17,11.2s-2.5,16.6-10.2,18.8c-16.7,3.9-33.3,8.8-48.7,16.5s-28,15.6-40.5,25.6c.2,8.5,2.1,16.9,2.2,25.4a206.1,206.1,0,0,0,99.4,35.6,15.4,15.4,0,0,1,5.7,28.3c-3.5,2.4-7.9,2.7-11.9,2.2C780,561.4,749.6,551.7,722,537c6.6,24.3,19.1,46.6,34.7,66.3,27,32.4,65.5,55.3,107.2,62.2,15.6,2,31.4,3.6,47.1,1.4,8.1-3.9,16.6-7.4,23.1-13.8,22.6-21.8,24.1-61.1,3.7-84.9-3-5-8.7-8.3-9.9-14.3a15.4,15.4,0,0,1,4.9-15.2c17.2-14.4,24.4-38.9,19.8-60.6-2.7-12.8-9.3-24.9-19.3-33.4-4-3.9-9.3-6-13.9-9.1-7.8-5.6-9.2-18.6-1.8-25.1,16.5-14.6,23.3-38.5,18.6-59.8-2.9-13.2-9.6-26.1-20.6-34.3-4.8-4.3-10.8-7-16.8-9.1-7.9-1.1-15.9.1-23.8.7M501.2,329.3a175,175,0,0,0-87.5,27.4c-31.4,19.7-56.1,49.5-70.3,83.7s-17.8,73.8-9,110.2c3.9,19.2,11.9,37.3,21.8,54.1,9.2,14.4,19.7,28.1,32.6,39.3,29.2,26.6,67.4,43.6,107,45.7,13.8,1.5,27.5-.2,41.2-1.6,42.2-6.6,81.5-29.4,108.6-62.3A181.5,181.5,0,0,0,686.8,523c-.3-7.4-2.1-14.6-2.2-22-.9-9,.2-18.1-.9-27a182.2,182.2,0,0,0-37.5-79.3c-11-13.3-23.6-25.4-38.1-34.8A175.2,175.2,0,0,0,501.2,329.3Z" fill="#fff"/><path d="M902,351c3.8-2,8.6-.7,11.4,2.5,6,6.6,6.1,17.7.5,24.5-2.6,3.2-7.3,5.1-11.2,3.2-8.6-3.7-16.2-9.6-23.7-15.2C886.3,360.5,893.7,354.9,902,351Z" fill="#fff"/><path d="M108.6,359.6c2.5-3.5,7.4-5.8,11.6-3.9,8.7,3.7,16.3,9.6,23.8,15.3-7.3,5.5-14.7,11.1-23,15a9.5,9.5,0,0,1-11-2C103.8,377.7,103.4,366.6,108.6,359.6Z" fill="#fff"/><path d="M917,478c3.9-2,8.7-.7,11.4,2.5,5.9,6.6,6,17.6.4,24.5-2.6,3.2-7.2,5.1-11.2,3.3-8.7-3.7-16.2-9.6-23.7-15.3C901.3,487.5,908.7,481.9,917,478Z" fill="#fff"/><path d="M94.5,485.5c2.8-3.2,7.6-4.5,11.4-2.5,8.3,3.8,15.7,9.5,23,15-7.3,5.5-14.7,11.2-23.1,15-3.8,2-8.6.7-11.4-2.5C88.5,503.8,88.4,492.3,94.5,485.5Z" fill="#fff"/><path d="M917,606c3.8-2.1,8.7-.7,11.5,2.5,5.9,6.6,6.1,17.6.5,24.5-2.6,3.3-7.3,5.1-11.2,3.3-8.7-3.8-16.2-9.6-23.7-15.2C901.3,615.5,908.7,609.9,917,606Z" fill="#fff"/><path d="M94.1,614c2.6-3.2,7.3-5.1,11.2-3.3,8.7,3.8,16.2,9.6,23.7,15.3-7.3,5.5-14.7,11.1-23,15-3.9,2-8.7.7-11.5-2.5C88.6,631.8,88.5,620.8,94.1,614Z" fill="#fff"/></g></svg>